# xmcd
#
# Track frame offsets: 
#        150
#        20629
#        41829
#        62096
#        82226
#        101344
#        118035
#        130784
#        147813
#        167245
#        183839
#        199805
#
# Disc length: 2998 seconds
#
# Revision: 0
# Processed by: cddbd v1.5.2PL0 Copyright (c) Steve Scherf et al.
# Submitted via: ExactAudioCopyFreeDBPlugin 1.0
#
DISCID=a90bb40c
DTITLE=Julienne Taylor - When We Are One
DYEAR=2014
DGENRE=Country
TTITLE0=Because You Loved Me
TTITLE1=A Thousand Years
TTITLE2=Right Here Waiting For You
TTITLE3=Toybox
TTITLE4=Stranger In Moscow
TTITLE5=Dancing For the Queen
TTITLE6=Se Mi Vuoi
TTITLE7=Kiss From A Rose
TTITLE8=Can't  Help Failing in Love
TTITLE9=Umbrella In The Rain
TTITLE10=Dulce Alma
TTITLE11=When We Are One
EXTD=
EXTT0=
EXTT1=
EXTT2=
EXTT3=
EXTT4=
EXTT5=
EXTT6=
EXTT7=
EXTT8=
EXTT9=
EXTT10=
EXTT11=
PLAYORDER=
